<?xml version="1.0" encoding="UTF-8" standalone="no"?>
<!DOCTYPE svg PUBLIC "-//W3C//DTD SVG 1.1//EN"
 "http://www.w3.org/Graphics/SVG/1.1/DTD/svg11.dtd">
<!-- Generated by graphviz version 2.49.1 (20211004.0028)
 -->
<!-- Title: snakemake_dag Pages: 1 -->
<svg width="250pt" height="332pt"
 viewBox="0.00 0.00 249.50 332.00" xmlns="http://www.w3.org/2000/svg" xmlns:xlink="http://www.w3.org/1999/xlink">
<g id="graph0" class="graph" transform="scale(1 1) rotate(0) translate(4 328)">
<title>snakemake_dag</title>
<polygon fill="white" stroke="transparent" points="-4,4 -4,-328 245.5,-328 245.5,4 -4,4"/>
<!-- 0 -->
<g id="node1" class="node">
<title>0</title>
<path fill="none" stroke="#78d856" stroke-width="2" stroke-dasharray="5,2" d="M151,-36C151,-36 65,-36 65,-36 59,-36 53,-30 53,-24 53,-24 53,-12 53,-12 53,-6 59,0 65,0 65,0 151,0 151,0 157,0 163,-6 163,-12 163,-12 163,-24 163,-24 163,-30 157,-36 151,-36"/>
<text text-anchor="middle" x="108" y="-15.5" font-family="sans" font-size="10.00">IntersectChipPeaks</text>
</g>
<!-- 1 -->
<g id="node2" class="node">
<title>1</title>
<path fill="none" stroke="#d87556" stroke-width="2" stroke-dasharray="5,2" d="M75,-108C75,-108 13,-108 13,-108 7,-108 1,-102 1,-96 1,-96 1,-84 1,-84 1,-78 7,-72 13,-72 13,-72 75,-72 75,-72 81,-72 87,-78 87,-84 87,-84 87,-96 87,-96 87,-102 81,-108 75,-108"/>
<text text-anchor="middle" x="44" y="-87.5" font-family="sans" font-size="10.00">CallPeaksChip</text>
</g>
<!-- 1&#45;&gt;0 -->
<g id="edge1" class="edge">
<title>1&#45;&gt;0</title>
<path fill="none" stroke="grey" stroke-width="2" d="M59.82,-71.7C67.57,-63.22 77.04,-52.86 85.52,-43.58"/>
<polygon fill="grey" stroke="grey" stroke-width="2" points="88.2,-45.85 92.36,-36.1 83.03,-41.12 88.2,-45.85"/>
</g>
<!-- 2 -->
<g id="node3" class="node">
<title>2</title>
<path fill="none" stroke="#d85656" stroke-width="2" stroke-dasharray="5,2" d="M74,-180C74,-180 12,-180 12,-180 6,-180 0,-174 0,-168 0,-168 0,-156 0,-156 0,-150 6,-144 12,-144 12,-144 74,-144 74,-144 80,-144 86,-150 86,-156 86,-156 86,-168 86,-168 86,-174 80,-180 74,-180"/>
<text text-anchor="middle" x="43" y="-159.5" font-family="sans" font-size="10.00">FilterBamChip</text>
</g>
<!-- 2&#45;&gt;1 -->
<g id="edge3" class="edge">
<title>2&#45;&gt;1</title>
<path fill="none" stroke="grey" stroke-width="2" d="M43.25,-143.7C43.36,-135.98 43.49,-126.71 43.61,-118.11"/>
<polygon fill="grey" stroke="grey" stroke-width="2" points="47.11,-118.15 43.76,-108.1 40.11,-118.05 47.11,-118.15"/>
</g>
<!-- 3 -->
<g id="node4" class="node">
<title>3</title>
<path fill="none" stroke="#d89c56" stroke-width="2" stroke-dasharray="5,2" d="M71,-252C71,-252 15,-252 15,-252 9,-252 3,-246 3,-240 3,-240 3,-228 3,-228 3,-222 9,-216 15,-216 15,-216 71,-216 71,-216 77,-216 83,-222 83,-228 83,-228 83,-240 83,-240 83,-246 77,-252 71,-252"/>
<text text-anchor="middle" x="43" y="-231.5" font-family="sans" font-size="10.00">SortBamChip</text>
</g>
<!-- 3&#45;&gt;2 -->
<g id="edge4" class="edge">
<title>3&#45;&gt;2</title>
<path fill="none" stroke="grey" stroke-width="2" d="M43,-215.7C43,-207.98 43,-198.71 43,-190.11"/>
<polygon fill="grey" stroke="grey" stroke-width="2" points="46.5,-190.1 43,-180.1 39.5,-190.1 46.5,-190.1"/>
</g>
<!-- 4 -->
<g id="node5" class="node">
<title>4</title>
<path fill="none" stroke="#566bd8" stroke-width="2" stroke-dasharray="5,2" d="M68,-324C68,-324 18,-324 18,-324 12,-324 6,-318 6,-312 6,-312 6,-300 6,-300 6,-294 12,-288 18,-288 18,-288 68,-288 68,-288 74,-288 80,-294 80,-300 80,-300 80,-312 80,-312 80,-318 74,-324 68,-324"/>
<text text-anchor="middle" x="43" y="-309" font-family="sans" font-size="10.00">AlignChip</text>
<text text-anchor="middle" x="43" y="-298" font-family="sans" font-size="10.00">Gene: ZEB1</text>
</g>
<!-- 4&#45;&gt;3 -->
<g id="edge5" class="edge">
<title>4&#45;&gt;3</title>
<path fill="none" stroke="grey" stroke-width="2" d="M43,-287.7C43,-279.98 43,-270.71 43,-262.11"/>
<polygon fill="grey" stroke="grey" stroke-width="2" points="46.5,-262.1 43,-252.1 39.5,-262.1 46.5,-262.1"/>
</g>
<!-- 5 -->
<g id="node6" class="node">
<title>5</title>
<path fill="none" stroke="#59d856" stroke-width="2" stroke-dasharray="5,2" d="M227,-108C227,-108 117,-108 117,-108 111,-108 105,-102 105,-96 105,-96 105,-84 105,-84 105,-78 111,-72 117,-72 117,-72 227,-72 227,-72 233,-72 239,-78 239,-84 239,-84 239,-96 239,-96 239,-102 233,-108 227,-108"/>
<text text-anchor="middle" x="172" y="-87.5" font-family="sans" font-size="10.00">ExtendAnntationBedFile</text>
</g>
<!-- 5&#45;&gt;0 -->
<g id="edge2" class="edge">
<title>5&#45;&gt;0</title>
<path fill="none" stroke="grey" stroke-width="2" d="M156.18,-71.7C148.43,-63.22 138.96,-52.86 130.48,-43.58"/>
<polygon fill="grey" stroke="grey" stroke-width="2" points="132.97,-41.12 123.64,-36.1 127.8,-45.85 132.97,-41.12"/>
</g>
<!-- 6 -->
<g id="node7" class="node">
<title>6</title>
<path fill="none" stroke="#56d8c1" stroke-width="2" stroke-dasharray="5,2" d="M229.5,-180C229.5,-180 116.5,-180 116.5,-180 110.5,-180 104.5,-174 104.5,-168 104.5,-168 104.5,-156 104.5,-156 104.5,-150 110.5,-144 116.5,-144 116.5,-144 229.5,-144 229.5,-144 235.5,-144 241.5,-150 241.5,-156 241.5,-156 241.5,-168 241.5,-168 241.5,-174 235.5,-180 229.5,-180"/>
<text text-anchor="middle" x="173" y="-159.5" font-family="sans" font-size="10.00">MakeAnnotationBedFiles</text>
</g>
<!-- 6&#45;&gt;5 -->
<g id="edge6" class="edge">
<title>6&#45;&gt;5</title>
<path fill="none" stroke="grey" stroke-width="2" d="M172.75,-143.7C172.64,-135.98 172.51,-126.71 172.39,-118.11"/>
<polygon fill="grey" stroke="grey" stroke-width="2" points="175.89,-118.05 172.24,-108.1 168.89,-118.15 175.89,-118.05"/>
</g>
</g>
</svg>
